<svg width="528" height="306" viewBox="0 0 528 306" fill="none" xmlns="http://www.w3.org/2000/svg">
<path fill-rule="evenodd" clip-rule="evenodd" d="M278.228 2.95042C348.05 5.82352 418.511 13.3073 466.898 36.9454C514.327 60.1152 529.789 92.8778 527.839 124.89C525.95 155.891 492.613 181.937 456.48 207.978C404.975 245.099 371.679 297.246 278.228 304.788C180.658 312.662 80.7275 281.031 25.3301 242.773C-23.7191 208.899 12.6655 165.689 17.735 124.89C22.3025 88.1314 -2.71502 46.0055 53.0216 19.9146C108.801 -6.19617 199.483 -0.2899 278.228 2.95042Z" fill="#A7D5EA"/>
<path fill-rule="evenodd" clip-rule="evenodd" d="M278.228 2.95042C348.05 5.82352 418.511 13.3073 466.898 36.9454C514.327 60.1152 529.789 92.8778 527.839 124.89C525.95 155.891 492.613 181.937 456.48 207.978C404.975 245.099 371.679 297.246 278.228 304.788C180.658 312.662 80.7275 281.031 25.3301 242.773C-23.7191 208.899 12.6655 165.689 17.735 124.89C22.3025 88.1314 -2.71502 46.0055 53.0216 19.9146C108.801 -6.19617 199.483 -0.2899 278.228 2.95042Z" fill="url(#paint0_radial_21_956)"/>
<defs>
<radialGradient id="paint0_radial_21_956" cx="0" cy="0" r="1" gradientUnits="userSpaceOnUse" gradientTransform="translate(528 -5.43033e-05) rotate(149.906) scale(610.262 1053)">
<stop stop-color="#FF9E9F"/>
<stop offset="1" stop-color="#FF9E9F" stop-opacity="0"/>
</radialGradient>
</defs>
</svg>
