<svg width="96" height="96" viewBox="0 0 96 96" fill="none" xmlns="http://www.w3.org/2000/svg">
<path d="M96 74.3849C92.508 75.2729 90.348 74.4239 88.41 71.5139L74.628 52.4459L72.636 49.8059L56.541 71.5769C54.702 74.1959 52.773 75.3359 49.341 74.4089L69.951 46.7429L50.763 21.7529C54.063 21.1109 56.343 21.4379 58.368 24.3929L72.663 43.6979L87.063 24.4979C88.908 21.8789 90.891 20.8829 94.203 21.8489L86.763 31.7129L76.683 44.8379C75.483 46.3379 75.648 47.3639 76.752 48.8129L96 74.3849ZM0.024 46.2809L1.71 37.9889C6.3 21.5789 25.11 14.7599 38.082 24.8999C45.663 30.8639 47.547 39.2999 47.172 48.7499H4.44C3.798 65.7599 16.041 76.0259 31.65 70.7879C37.125 68.9489 40.35 64.6619 41.964 59.2979C42.783 56.6099 44.139 56.1899 46.665 56.9579C45.375 63.6659 42.465 69.2699 36.315 72.7769C27.126 78.0269 14.01 76.3289 7.11 69.0329C3 64.7999 1.302 59.4359 0.54 53.6999C0.42 52.7519 0.18 51.8489 0 50.9399C0.016 49.3879 0.024 47.8359 0.024 46.2839V46.2809ZM4.518 45.1409H43.134C42.882 32.8409 35.223 24.1049 24.756 24.0299C13.266 23.9399 5.016 32.4689 4.518 45.1409Z" fill="#030B01"/>
</svg>
