<svg width="96" height="85" viewBox="0 0 96 85" fill="none" xmlns="http://www.w3.org/2000/svg">
<path d="M15.1639 38.1934C15.0131 38.1934 14.9753 38.1179 15.0508 38.0045L15.8429 36.9845C15.9184 36.8712 16.107 36.7957 16.2579 36.7957H29.7243C29.8751 36.7957 29.9129 36.909 29.8374 37.0223L29.1962 38.0045C29.1207 38.1179 28.9321 38.2312 28.819 38.2312L15.1639 38.1934Z" fill="#A7D5EA"/>
<path d="M9.46802 41.669C9.31714 41.669 9.27942 41.5935 9.35486 41.4801L10.147 40.4601C10.2224 40.3468 10.411 40.2712 10.5619 40.2712H27.7627C27.9136 40.2712 27.989 40.3846 27.9513 40.4979L27.6496 41.4046C27.6118 41.5557 27.4609 41.6312 27.3101 41.6312L9.46802 41.669Z" fill="#A7D5EA"/>
<path d="M18.5966 45.1446C18.4457 45.1446 18.408 45.0313 18.4834 44.9179L19.0115 43.9735C19.0869 43.8602 19.2378 43.7468 19.3887 43.7468H26.9329C27.0838 43.7468 27.1592 43.8602 27.1592 44.0113L27.0838 44.9179C27.0838 45.069 26.9329 45.1824 26.8197 45.1824L18.5966 45.1446Z" fill="#A7D5EA"/>
<path d="M57.7509 37.5134C55.3745 38.1179 53.7525 38.5712 51.4138 39.1756C50.848 39.3268 50.8103 39.3645 50.3199 38.7979C49.7541 38.1556 49.3392 37.7401 48.547 37.3623C46.1706 36.1912 43.8696 36.5312 41.7195 37.929C39.1545 39.5912 37.8342 42.0468 37.872 45.1068C37.9097 48.129 39.9843 50.6223 42.9643 51.0379C45.5293 51.3779 47.6794 50.4712 49.3769 48.5445C49.7164 48.129 50.0181 47.6756 50.3953 47.1468C49.0374 47.1468 47.3399 47.1468 43.1152 47.1468C42.323 47.1468 42.1344 46.6557 42.3985 46.0134C42.8889 44.8423 43.7942 42.8779 44.3223 41.8956C44.4354 41.669 44.6995 41.2912 45.2653 41.2912C47.1891 41.2912 54.2806 41.2912 58.9957 41.2912C58.9203 42.3112 58.9203 43.3312 58.7694 44.3512C58.3545 47.0712 57.336 49.5645 55.6763 51.7556C52.9604 55.3445 49.4146 57.5734 44.9258 58.1779C41.2291 58.669 37.7965 57.9512 34.7788 55.6845C31.9875 53.569 30.4032 50.7734 29.9883 47.2979C29.4979 43.1801 30.705 39.4779 33.1946 36.229C35.8727 32.7157 39.4185 30.4868 43.7564 29.6934C47.3022 29.0512 50.6971 29.4668 53.7525 31.5445C55.7517 32.8668 57.1851 34.6801 58.1282 36.8712C58.3545 37.2112 58.2036 37.4001 57.7509 37.5134Z" fill="#A7D5EA"/>
<path d="M70.2366 58.4046C66.804 58.329 63.6731 57.3468 61.0326 55.0801C58.8071 53.1535 57.4114 50.6979 56.9588 47.789C56.2798 43.5201 57.4491 39.7424 60.0142 36.3801C62.7678 32.7535 66.0873 30.8646 70.5761 30.0712C74.4236 29.3912 78.0448 29.769 81.3266 31.9979C84.3065 34.0379 86.1548 36.7957 86.6452 40.4224C87.2865 45.5224 85.8153 49.6779 82.3073 53.229C79.8177 55.7601 76.7623 57.3468 73.2542 58.0646C72.2358 58.2535 71.2173 58.2912 70.2366 58.4046ZM79.2142 43.1424C79.1765 42.6512 79.1764 42.2735 79.101 41.8957C78.422 38.1557 74.9894 36.0401 71.4059 36.8712C67.8979 37.6646 65.6346 39.8935 64.8047 43.4446C64.1258 46.3912 65.5592 49.3757 68.2751 50.5846C70.3497 51.4912 72.4244 51.3779 74.4236 50.3579C77.4036 48.809 79.0256 46.3912 79.2142 43.1424Z" fill="#A7D5EA"/>
</svg>
