<svg xmlns="http://www.w3.org/2000/svg" width="1016" height="680" viewBox="0 0 1016 680" fill="none">
  <g filter="url(#filter0_f_18_598)">
    <path fill-rule="evenodd" clip-rule="evenodd" d="M559.048 579.928C634.218 578.648 704.97 561.903 764.51 527.193C834.545 486.365 913.177 438.703 915.927 371.88C918.715 304.153 840.867 254.674 777.705 206.594C714.214 158.264 648.963 95.8083 559.048 100.221C470.97 104.544 436.543 185.61 367.055 226.749C277.368 279.847 106.602 285.903 100.19 371.88C93.8497 456.905 247.505 490.547 344.116 534.351C410.452 564.428 481.714 581.245 559.048 579.928Z" fill="url(#paint0_radial_18_598)" fill-opacity="0.7"/>
    <path fill-rule="evenodd" clip-rule="evenodd" d="M559.048 579.928C634.218 578.648 704.97 561.903 764.51 527.193C834.545 486.365 913.177 438.703 915.927 371.88C918.715 304.153 840.867 254.674 777.705 206.594C714.214 158.264 648.963 95.8083 559.048 100.221C470.97 104.544 436.543 185.61 367.055 226.749C277.368 279.847 106.602 285.903 100.19 371.88C93.8497 456.905 247.505 490.547 344.116 534.351C410.452 564.428 481.714 581.245 559.048 579.928Z" fill="url(#paint1_radial_18_598)" fill-opacity="0.3"/>
    <path fill-rule="evenodd" clip-rule="evenodd" d="M559.048 579.928C634.218 578.648 704.97 561.903 764.51 527.193C834.545 486.365 913.177 438.703 915.927 371.88C918.715 304.153 840.867 254.674 777.705 206.594C714.214 158.264 648.963 95.8083 559.048 100.221C470.97 104.544 436.543 185.61 367.055 226.749C277.368 279.847 106.602 285.903 100.19 371.88C93.8497 456.905 247.505 490.547 344.116 534.351C410.452 564.428 481.714 581.245 559.048 579.928Z" fill="url(#paint2_radial_18_598)" fill-opacity="0.3"/>
  </g>
  <defs>
    <filter id="filter0_f_18_598" x="0" y="0" width="1016" height="680" filterUnits="userSpaceOnUse" color-interpolation-filters="sRGB">
      <feFlood flood-opacity="0" result="BackgroundImageFix"/>
      <feBlend mode="normal" in="SourceGraphic" in2="BackgroundImageFix" result="shape"/>
      <feGaussianBlur stdDeviation="50" result="effect1_foregroundBlur_18_598"/>
    </filter>
    <radialGradient id="paint0_radial_18_598" cx="0" cy="0" r="1" gradientUnits="userSpaceOnUse" gradientTransform="translate(100 580) rotate(-30.4655) scale(946.708 914.34)">
      <stop stop-color="#BF3B53"/>
      <stop offset="1" stop-color="#BF3B53" stop-opacity="0"/>
    </radialGradient>
    <radialGradient id="paint1_radial_18_598" cx="0" cy="0" r="1" gradientUnits="userSpaceOnUse" gradientTransform="translate(916 100) rotate(149.534) scale(946.708 914.34)">
      <stop stop-color="#FF9E9F"/>
      <stop offset="1" stop-color="#FF9E9F" stop-opacity="0"/>
    </radialGradient>
    <radialGradient id="paint2_radial_18_598" cx="0" cy="0" r="1" gradientUnits="userSpaceOnUse" gradientTransform="translate(508 340) rotate(-30.4655) scale(473.354 457.17)">
      <stop stop-color="#A7D5EA"/>
      <stop offset="1" stop-color="#A7D5EA" stop-opacity="0"/>
    </radialGradient>
  </defs>
</svg>