<svg width="1016" height="680" viewBox="0 0 1016 680" fill="none" xmlns="http://www.w3.org/2000/svg">
<g filter="url(#filter0_f_18_151)">
<path fill-rule="evenodd" clip-rule="evenodd" d="M553.853 115.502C654.935 117.33 769.314 82.5592 844.604 134.325C921.26 187.031 926.157 279.973 905.594 357.344C888.303 422.402 812.896 462.571 746.133 504.832C688.455 541.342 628.634 580.434 553.853 579.996C479.5 579.561 426.905 533.588 364.486 502.597C271.139 456.248 130.716 440.401 105.423 357.344C78.8644 270.133 153.542 175.062 249.055 123.551C335.507 76.9271 448.2 113.59 553.853 115.502Z" fill="url(#paint0_radial_18_151)" fill-opacity="0.7"/>
<path fill-rule="evenodd" clip-rule="evenodd" d="M553.853 115.502C654.935 117.33 769.314 82.5592 844.604 134.325C921.26 187.031 926.157 279.973 905.594 357.344C888.303 422.402 812.896 462.571 746.133 504.832C688.455 541.342 628.634 580.434 553.853 579.996C479.5 579.561 426.905 533.588 364.486 502.597C271.139 456.248 130.716 440.401 105.423 357.344C78.8644 270.133 153.542 175.062 249.055 123.551C335.507 76.9271 448.2 113.59 553.853 115.502Z" fill="url(#paint1_radial_18_151)" fill-opacity="0.3"/>
<path fill-rule="evenodd" clip-rule="evenodd" d="M553.853 115.502C654.935 117.33 769.314 82.5592 844.604 134.325C921.26 187.031 926.157 279.973 905.594 357.344C888.303 422.402 812.896 462.571 746.133 504.832C688.455 541.342 628.634 580.434 553.853 579.996C479.5 579.561 426.905 533.588 364.486 502.597C271.139 456.248 130.716 440.401 105.423 357.344C78.8644 270.133 153.542 175.062 249.055 123.551C335.507 76.9271 448.2 113.59 553.853 115.502Z" fill="url(#paint2_radial_18_151)" fill-opacity="0.3"/>
</g>
<defs>
<filter id="filter0_f_18_151" x="0" y="0" width="1016" height="680" filterUnits="userSpaceOnUse" color-interpolation-filters="sRGB">
<feFlood flood-opacity="0" result="BackgroundImageFix"/>
<feBlend mode="normal" in="SourceGraphic" in2="BackgroundImageFix" result="shape"/>
<feGaussianBlur stdDeviation="50" result="effect1_foregroundBlur_18_151"/>
</filter>
<radialGradient id="paint0_radial_18_151" cx="0" cy="0" r="1" gradientUnits="userSpaceOnUse" gradientTransform="translate(100 100) rotate(30.4655) scale(946.708 914.34)">
<stop stop-color="#BF3B53"/>
<stop offset="1" stop-color="#BF3B53" stop-opacity="0"/>
</radialGradient>
<radialGradient id="paint1_radial_18_151" cx="0" cy="0" r="1" gradientUnits="userSpaceOnUse" gradientTransform="translate(916 580) rotate(-149.534) scale(946.708 914.34)">
<stop stop-color="#FF9E9F"/>
<stop offset="1" stop-color="#FF9E9F" stop-opacity="0"/>
</radialGradient>
<radialGradient id="paint2_radial_18_151" cx="0" cy="0" r="1" gradientUnits="userSpaceOnUse" gradientTransform="translate(508 340) rotate(30.4655) scale(473.354 457.17)">
<stop stop-color="#A7D5EA"/>
<stop offset="1" stop-color="#A7D5EA" stop-opacity="0"/>
</radialGradient>
</defs>
</svg>
