<svg width="96" height="96" viewBox="0 0 96 96" fill="none" xmlns="http://www.w3.org/2000/svg">
<g clip-path="url(#clip0_18_464)">
<path d="M0 0H96V96H0V0Z" fill="#BF3B53"/>
<path d="M88.143 73.1041C87.4403 68.7239 84.584 65.0463 76.1247 61.6151C73.1863 60.2645 69.9103 59.2973 68.9338 57.0706C68.5871 55.7748 68.5414 55.0448 68.7604 54.26C69.3901 51.714 72.4289 50.9201 74.838 51.6501C76.3893 52.1702 77.8585 53.3658 78.7437 55.2729C82.8867 52.5901 82.8776 52.6083 85.7703 50.765C84.7118 49.1224 84.146 48.3649 83.4525 47.6624C80.9612 44.8791 77.5665 43.4464 72.1369 43.5559C71.1969 43.6745 70.248 43.8022 69.308 43.9209C66.5978 44.6053 64.0152 46.0289 62.5004 47.9361C57.9559 53.092 59.2517 62.117 64.7817 65.8312C70.2296 69.9194 78.2327 70.8502 79.2547 74.6738C80.2494 79.3551 75.8145 80.8699 71.4068 80.3316C68.1582 79.6563 66.3514 78.0046 64.3985 75.0023C60.8031 77.0829 60.8031 77.0829 57.1073 79.2091C57.9834 81.1255 58.9049 81.9924 60.3742 83.6532C67.3278 90.7072 84.73 90.3605 87.851 79.6836C87.9787 79.3185 88.8183 76.8729 88.143 73.1041ZM52.1886 44.1216H43.2091C43.2091 51.8782 43.1727 59.5801 43.1727 67.3368C43.1727 72.2737 43.4282 76.7999 42.6252 78.187C41.3111 80.9154 37.9073 80.5779 36.356 80.0485C34.7773 79.2728 33.9742 78.1686 33.0434 76.6083C32.7879 76.1611 32.5963 75.8144 32.5323 75.787C30.0959 77.2744 27.6684 78.7709 25.2319 80.2585C26.4457 82.7497 28.2342 84.9125 30.5247 86.3177C33.9468 88.3709 38.546 89.0006 43.3552 87.8964C46.4853 86.9838 49.1863 85.095 50.6008 82.2204C52.6449 78.4516 52.2068 73.8889 52.1886 68.8425C52.2342 60.6113 52.1886 52.3801 52.1886 44.1216Z" fill="#030B01"/>
</g>
<defs>
<clipPath id="clip0_18_464">
<rect width="96" height="96" fill="white"/>
</clipPath>
</defs>
</svg>
