<svg width="45" height="96" viewBox="0 0 45 96" fill="none" xmlns="http://www.w3.org/2000/svg">
<g clip-path="url(#clip0_18_590)">
<path d="M31.1283 10.6999C27.0498 5.91948 23.5377 1.06438 22.8202 0.0560201C22.7447 -0.0186734 22.6314 -0.0186734 22.5558 0.0560201C21.8383 1.06438 18.3262 5.91948 14.2477 10.6999C-20.7598 54.8063 19.7613 84.5719 19.7613 84.5719L20.1012 84.7959C20.4033 89.3898 21.1586 96 21.1586 96H22.6691H24.1797C24.1797 96 24.935 89.427 25.2371 84.7959L25.577 84.5347C25.6148 84.5347 66.1358 54.8063 31.1283 10.6999ZM22.6691 83.8995C22.6691 83.8995 20.8565 82.3684 20.3655 81.584V81.5096L22.5558 33.4814C22.5558 33.332 22.7825 33.332 22.7825 33.4814L24.9728 81.5096V81.584C24.4818 82.3684 22.6691 83.8995 22.6691 83.8995Z" fill="#BF3B53"/>
</g>
<defs>
<clipPath id="clip0_18_590">
<rect width="45" height="96" fill="white"/>
</clipPath>
</defs>
</svg>
