<svg width="96" height="96" viewBox="0 0 96 96" fill="none" xmlns="http://www.w3.org/2000/svg">
<g clip-path="url(#clip0_18_592)">
<path fill-rule="evenodd" clip-rule="evenodd" d="M88.4273 74.7788C83.2061 74.6334 79.1555 75.1686 75.7605 76.5967C74.783 76.9893 73.2142 76.9893 73.0855 78.2196C73.6079 78.7359 73.6708 79.5809 74.1288 80.2964C74.9117 81.595 76.2844 83.3446 77.5238 84.252L81.7017 87.2377C84.248 88.7938 87.1206 89.7027 89.601 91.2602C91.038 92.1692 92.4735 93.337 93.9105 94.3113C94.6422 94.8305 95.0856 95.6755 96.0002 95.9983V95.802C95.5436 95.2203 95.4119 94.3768 94.9568 93.7253L92.9959 91.8449C91.1038 89.3144 88.7522 87.1068 86.2059 85.2918C84.1163 83.8637 79.5477 81.9179 78.6989 79.5183L78.5701 79.3729C80.0042 79.2275 81.7017 78.7228 83.0744 78.3331C85.2957 77.7514 87.3181 77.8793 89.601 77.2962L92.7369 76.3872V75.8055C91.5618 74.6377 90.7131 73.0802 89.4736 71.9778C86.1445 69.1231 82.4861 66.3323 78.6989 63.9967C76.6751 62.6995 74.063 61.8545 71.9089 60.7536C71.1231 60.3639 69.8193 60.169 69.3627 59.5204C68.1847 58.0952 67.5335 56.2119 66.6847 54.5235L61.3318 43.2339C60.1567 40.7034 59.4367 38.1729 58.0026 35.8373C51.277 24.8066 43.9632 18.1241 32.7334 11.5696C30.3188 10.207 27.4462 9.6209 24.3922 8.9083L19.4958 8.64653C18.4495 8.19279 17.4061 6.95955 16.4915 6.37493C12.7702 4.03934 3.17205 -1.02158 0.42825 5.64778C-1.3351 9.86522 3.04034 14.0172 4.52565 16.1594C5.6378 17.6515 7.07189 19.3384 7.85772 21.0254C8.29672 22.1278 8.44307 23.297 8.9011 24.4648C9.94447 27.3196 10.9249 30.5001 12.2961 33.1615C13.0278 34.5241 13.796 35.9537 14.7106 37.1855C15.2331 37.9126 16.1476 38.2238 16.3423 39.3916C15.4277 40.6903 15.3647 42.6347 14.8423 44.2591C12.4907 51.5916 13.4053 60.6751 16.7345 66.0734C17.7808 67.695 20.2465 71.2652 23.5918 69.9011C26.5302 68.7333 25.8746 65.0351 26.7233 61.7906C26.9209 61.0125 26.7892 60.4933 27.1799 59.9727V60.1181L29.8579 65.5034C31.8817 68.6824 35.4084 71.9924 38.3453 74.2C39.9111 75.3678 41.1521 77.3805 43.11 78.0931V77.8968H42.9813C42.5891 77.3151 42.0008 77.0533 41.4784 76.5996C40.3033 75.4318 38.998 74.0037 38.0834 72.7064C35.3425 69.0736 32.928 65.0496 30.7725 60.8976C29.7262 58.8864 28.8116 56.6802 27.9657 54.6689C27.5706 53.8894 27.5706 52.7202 26.9194 52.3333C25.939 53.7585 24.5049 54.9947 23.7835 56.7456C22.5425 59.535 22.4137 62.9743 21.9572 66.5432C21.6938 66.6086 21.8109 66.5432 21.6938 66.6886C19.607 66.1709 18.8871 64.0273 18.1042 62.2123C16.1462 57.6051 15.8184 50.2086 17.5159 44.8874C17.9724 43.5247 19.9334 39.2418 19.1505 37.9446C18.7554 36.7114 17.453 35.9988 16.733 35.0244C15.8842 33.7912 14.9726 32.2351 14.3843 30.8724C12.8185 27.2367 12.0356 23.2156 10.3366 19.5813C9.55082 17.8943 8.18113 16.1419 7.07044 14.5858C5.82951 12.8334 4.46126 11.6002 3.48081 9.52492C3.15448 8.79777 2.69792 7.64307 3.22033 6.86357C3.34911 6.34439 3.61252 6.13643 4.13201 6.02008C4.98076 5.29294 7.39822 6.21496 8.24697 6.6018C10.6615 7.57617 12.6853 8.48365 14.7092 9.84486C15.6238 10.4935 16.6042 11.7267 17.7793 12.0525H19.1519C21.2416 12.5062 23.5903 12.1979 25.5468 12.7796C29.0076 13.8849 32.1407 15.5049 34.9503 17.2588C43.5022 22.644 50.5556 30.3009 55.3203 39.4513C56.1032 40.9434 56.4295 42.306 57.1495 43.8636C58.5221 47.0441 60.2196 50.2872 61.5879 53.4037C62.9605 56.4533 64.2658 59.5699 66.2238 62.1003C67.2042 63.463 71.1202 64.1756 72.8821 64.8896C74.1889 65.4714 76.2112 65.9949 77.3892 66.7075C79.6077 68.0702 81.8276 69.6277 83.9158 71.1198C84.9592 71.8964 88.2254 73.5194 88.42 74.8137L88.4273 74.7788ZM21.8445 18.3932C20.9424 18.3852 20.0432 18.4943 19.1695 18.7175V18.8629H19.2983C19.8207 19.9013 20.7353 20.6153 21.3879 21.5242L22.8908 24.6393L23.0196 24.4939C23.9342 23.8453 24.3922 22.8069 24.3922 21.2508C24 20.7971 23.9356 20.3419 23.6093 19.8882C23.2171 19.2396 22.3684 18.9138 21.8445 18.3961V18.3932Z" fill="#A7D5EA"/>
</g>
<defs>
<clipPath id="clip0_18_592">
<rect width="96" height="96" fill="white"/>
</clipPath>
</defs>
</svg>
