<svg width="96" height="96" viewBox="0 0 96 96" fill="none" xmlns="http://www.w3.org/2000/svg">
<g clip-path="url(#clip0_18_443)">
<mask id="mask0_18_443" style="mask-type:alpha" maskUnits="userSpaceOnUse" x="0" y="0" width="96" height="96">
<path d="M48 96C74.5097 96 96 74.5097 96 48C96 21.4903 74.5097 0 48 0C21.4903 0 0 21.4903 0 48C0 74.5097 21.4903 96 48 96Z" fill="black"/>
</mask>
<g mask="url(#mask0_18_443)">
<path d="M48 96C74.5097 96 96 74.5097 96 48C96 21.4903 74.5097 0 48 0C21.4903 0 0 21.4903 0 48C0 74.5097 21.4903 96 48 96Z" fill="#030B01"/>
<path d="M79.7376 84.0107L36.8757 28.8H28.8V67.184H35.2606V37.0046L74.6661 87.9174C76.4442 86.7275 78.1381 85.4214 79.7376 84.0107Z" fill="url(#paint0_linear_18_443)"/>
<path d="M67.7333 28.8H61.3333V67.2H67.7333V28.8Z" fill="url(#paint1_linear_18_443)"/>
</g>
</g>
<defs>
<linearGradient id="paint0_linear_18_443" x1="58.1333" y1="62.1334" x2="77.0667" y2="85.6" gradientUnits="userSpaceOnUse">
<stop stop-color="#A7D5EA"/>
<stop offset="1" stop-color="#A7D5EA" stop-opacity="0"/>
</linearGradient>
<linearGradient id="paint1_linear_18_443" x1="64.5333" y1="28.8" x2="64.4261" y2="57" gradientUnits="userSpaceOnUse">
<stop stop-color="#A7D5EA"/>
<stop offset="1" stop-color="#A7D5EA" stop-opacity="0"/>
</linearGradient>
<clipPath id="clip0_18_443">
<rect width="96" height="96" fill="white"/>
</clipPath>
</defs>
</svg>
