<svg width="96" height="96" viewBox="0 0 96 96" fill="none" xmlns="http://www.w3.org/2000/svg">
<path d="M71.1863 69.8851C71.7975 64.7964 71.6138 64.0539 75.4013 64.8751L76.365 64.9614C79.2788 65.0927 83.0888 64.4927 85.365 63.4539C90.1838 61.2189 93.0413 57.4839 88.29 58.4664C77.4525 60.7014 76.665 57.0302 76.665 57.0302C88.1138 40.0427 92.9025 18.4801 88.7663 13.2039C77.5013 -1.1961 57.9975 5.6139 57.6713 5.7939L57.5663 5.81265C55.4288 5.36265 53.0663 5.10015 50.3288 5.06265C45.4238 4.98765 41.7038 6.3489 38.8763 8.49015C38.8763 8.49015 4.08751 -5.84235 5.70376 26.5164C6.04876 33.4014 15.5663 78.6414 26.9288 64.9539C31.0875 59.9514 35.1 55.7252 35.1 55.7252C37.0875 57.0489 39.4763 57.7239 41.9775 57.4802L42.1725 57.3152C42.1148 57.9633 42.1413 58.6163 42.2513 59.2577C39.3263 62.5277 40.1888 63.1014 34.3388 64.3052C28.4213 65.5239 31.9013 67.6952 34.1663 68.2652C36.9188 68.9552 43.2863 69.9302 47.5913 63.9077L47.4188 64.5939C48.5663 65.5126 48.4875 71.1939 48.6563 75.2514C48.825 79.3089 49.0913 83.1002 49.92 85.3314C50.7488 87.5626 51.72 93.3189 59.4075 91.7064C65.8313 90.3302 70.7438 88.3464 71.1938 69.9189" fill="#030B01"/>
<path d="M71.1863 69.8851C71.7975 64.7964 71.6138 64.0539 75.4013 64.8751L76.365 64.9614C79.2788 65.0926 83.0888 64.4927 85.365 63.4539C90.1838 61.2189 93.0413 57.4839 88.29 58.4664C77.4525 60.7014 76.665 57.0302 76.665 57.0302C88.1138 40.0427 92.9025 18.4801 88.7663 13.2039C77.5013 -1.1961 57.9975 5.6139 57.6713 5.7939L57.5663 5.81265C55.4288 5.36265 53.0663 5.10015 50.3288 5.06265C45.4238 4.98765 41.7038 6.3489 38.8763 8.49015C38.8763 8.49015 4.08751 -5.84235 5.70376 26.5164C6.04876 33.4014 15.5663 78.6414 26.9288 64.9539C31.0875 59.9514 35.1 55.7252 35.1 55.7252C37.0875 57.0489 39.4763 57.7239 41.9775 57.4802L42.1725 57.3152C42.1148 57.9633 42.1413 58.6163 42.2513 59.2577C39.3263 62.5277 40.1888 63.1014 34.3388 64.3052C28.4213 65.5239 31.9013 67.6952 34.1663 68.2652C36.9188 68.9552 43.2863 69.9302 47.5913 63.9077L47.4188 64.5939C48.5663 65.5127 48.4875 71.1939 48.6563 75.2514C48.825 79.3089 49.0913 83.1001 49.92 85.3314C50.7488 87.5626 51.72 93.3189 59.4075 91.7064C65.8313 90.3302 70.7438 88.3464 71.1938 69.9189" stroke="#030B01" stroke-width="5.3725"/>
<path d="M88.2563 58.5001C77.4188 60.7351 76.6313 57.0639 76.6313 57.0639C88.08 40.0764 92.8688 18.5139 88.7363 13.2376C77.4713 -1.16238 57.9675 5.65137 57.6413 5.82762L57.5363 5.84637C55.1541 5.36838 52.7321 5.11601 50.3025 5.09262C45.3975 5.01762 41.6775 6.37887 38.85 8.52012C38.85 8.52012 4.05752 -5.81238 5.67752 26.5464C6.02252 33.4314 15.54 78.6714 26.9025 64.9839C31.0875 59.9514 35.1 55.7251 35.1 55.7251C37.0875 57.0489 39.4763 57.7239 41.9775 57.4801L42.1725 57.3151C42.1152 57.9633 42.1417 58.6162 42.2513 59.2576C39.3263 62.5276 40.1888 63.1014 34.3388 64.3051C28.4213 65.5239 31.9013 67.6951 34.1663 68.2651C36.9188 68.9551 43.2863 69.9301 47.5913 63.9076L47.4188 64.5939C48.5663 65.5126 49.3688 70.5676 49.2338 75.1501C49.0988 79.7326 49.0088 82.8751 49.9088 85.3351C50.8088 87.7951 51.7088 93.3226 59.3963 91.7101C65.82 90.3339 69.1463 86.7601 69.615 80.8126C69.945 76.5826 70.6875 77.2051 70.74 73.4251L71.34 71.6326C72.0263 65.8951 71.4525 64.0464 75.4088 64.9089L76.3725 64.9951C79.2863 65.1264 83.1 64.5264 85.335 63.4876C90.1538 61.2526 93.0075 57.5176 88.2563 58.5001Z" fill="#A7D5EA"/>
<path d="M48.0525 61.7514C47.7525 72.4239 48.1275 83.1714 49.17 85.7514C50.2125 88.3314 52.4513 93.4389 60.1425 91.7964C66.5663 90.4201 68.9063 87.7539 69.9188 81.8701L72.2925 63.0564M38.835 8.25011C38.835 8.25011 4.02001 -5.98489 5.64001 26.3739C5.98501 33.2589 15.5025 78.4989 26.865 64.8114C31.0125 59.8126 34.7625 55.9014 34.7625 55.9014M57.6375 5.65136C56.4375 6.02636 77.0025 -1.86739 88.695 13.0689C92.82 18.3451 88.0388 39.9076 76.59 56.8951" stroke="white" stroke-width="1.79" stroke-linecap="round" stroke-linejoin="round"/>
<path d="M76.5937 56.8875C76.5937 56.8875 77.3437 60.5625 88.2187 58.32C92.97 57.3375 90.1087 61.0725 85.2937 63.3075C81.3412 65.145 72.4762 65.6138 72.33 63.0825C71.955 56.5388 76.995 58.5263 76.6312 56.8875C76.3012 55.41 74.0437 53.9625 72.5587 50.3475C71.2575 47.1975 54.7087 23.01 77.1487 26.5988C77.9737 26.43 71.2987 5.22377 50.2987 4.91627C29.2987 4.60877 29.9625 30.735 29.9625 30.735" stroke="white" stroke-width="1.79" stroke-linecap="round" stroke-linejoin="bevel"/>
<path d="M42.1762 59.13C39.2512 62.4 40.1137 62.9737 34.2637 64.1775C28.3462 65.3962 31.8262 67.5675 34.0912 68.1375C36.8437 68.8275 43.2112 69.8025 47.5162 63.7762C48.8287 61.9387 47.5087 59.0137 45.7087 58.2712C44.8387 57.9112 43.6762 57.4612 42.1837 59.1337L42.1762 59.13Z" stroke="white" stroke-width="1.79" stroke-linejoin="round"/>
<path d="M41.985 59.0738C41.685 57.15 42.615 54.8663 43.6088 52.1888C45.1013 48.1763 48.5438 44.1638 45.7913 31.425C43.74 21.9375 29.9663 29.4488 29.9663 30.735C29.9663 32.0213 30.5888 37.26 29.7413 43.3538C28.6275 51.3113 34.8038 58.0388 41.9138 57.3525" stroke="white" stroke-width="1.79" stroke-linecap="round" stroke-linejoin="round"/>
<path d="M38.7075 30.5437C38.6438 30.9825 39.5138 32.1562 40.6425 32.3137C41.7713 32.4712 42.735 31.5562 42.7988 31.1137C42.8625 30.6712 41.9925 30.1912 40.8638 30.0337C39.735 29.8762 38.7638 30.1087 38.7075 30.5437Z" fill="white" stroke="white" stroke-width="0.5975"/>
<path d="M73.0725 29.6475C73.1325 30.0863 72.2663 31.26 71.1375 31.4175C70.0088 31.575 69.0375 30.66 68.9813 30.2175C68.925 29.775 69.7875 29.295 70.9163 29.1375C72.045 28.98 73.0163 29.2125 73.0725 29.6475Z" fill="white" stroke="white" stroke-width="0.2975"/>
<path d="M77.1075 26.6064C77.295 30.0564 76.365 32.4002 76.245 36.0714C76.0725 41.4039 78.7875 47.5089 74.6963 53.6214" stroke="white" stroke-width="1.79" stroke-linecap="round" stroke-linejoin="round"/>
</svg>
