<svg width="96" height="96" viewBox="0 0 96 96" fill="none" xmlns="http://www.w3.org/2000/svg">
<path d="M47.8275 24C35.6415 24 36.402 29.2845 36.402 29.2845L36.417 34.7595H48.045V36.402H31.7955C31.7955 36.402 24 35.517 24 47.814C24 60.108 30.8055 59.673 30.8055 59.673H34.8675V53.967C34.8675 53.967 34.6485 47.1615 41.565 47.1615H53.097C53.097 47.1615 59.577 47.2665 59.577 40.899V30.3705C59.577 30.3705 60.561 24 47.8275 24ZM41.415 27.681C42.5715 27.681 43.5075 28.617 43.5075 29.7735C43.5075 30.93 42.5715 31.866 41.415 31.866C41.1401 31.8664 40.8678 31.8125 40.6138 31.7075C40.3597 31.6025 40.1289 31.4484 39.9345 31.254C39.7401 31.0596 39.586 30.8288 39.481 30.5747C39.376 30.3207 39.3221 30.0484 39.3225 29.7735C39.3225 28.617 40.2585 27.681 41.415 27.681Z" fill="#A7D5EA"/>
<path d="M48.1725 71.7496C60.3585 71.7496 59.598 66.4651 59.598 66.4651L59.583 60.9901H47.955V59.3476H64.203C64.203 59.3476 72 60.2326 72 47.9371C72 35.6416 65.1945 36.0781 65.1945 36.0781H61.1325V41.7826C61.1325 41.7826 61.3515 48.5881 54.435 48.5881H42.903C42.903 48.5881 36.423 48.4831 36.423 54.8506V65.3791C36.423 65.3791 35.439 71.7496 48.1725 71.7496ZM54.585 68.0686C54.3101 68.069 54.0379 68.0151 53.7838 67.9101C53.5297 67.8051 53.2989 67.651 53.1045 67.4566C52.9101 67.2622 52.756 67.0314 52.651 66.7773C52.546 66.5233 52.4921 66.251 52.4925 65.9761C52.4925 64.8211 53.4285 63.8851 54.585 63.8851C55.7415 63.8851 56.6775 64.8196 56.6775 65.9761C56.6775 67.1341 55.7415 68.0686 54.585 68.0686Z" fill="#BF3B53"/>
</svg>
