<svg width="96" height="109" viewBox="0 0 96 109" fill="none" xmlns="http://www.w3.org/2000/svg">
<path d="M96 54.5097C96 48.1727 88.0359 42.1673 75.8255 38.4431C78.6433 26.0422 77.391 16.1761 71.8728 13.0174C70.6009 12.2765 69.1137 11.9255 67.4896 11.9255V16.2736C68.3897 16.2736 69.1137 16.4491 69.7203 16.7806C72.3816 18.3014 73.5361 24.0924 72.636 31.5407C72.4207 33.3736 72.0685 35.3039 71.638 37.2732C67.8027 36.3373 63.6152 35.6159 59.2124 35.1479C56.5707 31.5407 53.8312 28.265 51.0722 25.3988C57.4513 19.4908 63.4391 16.2541 67.5092 16.2541V11.906C62.128 11.906 55.0836 15.7277 47.9609 22.3571C40.8382 15.7667 33.7937 11.984 28.4126 11.984V16.3321C32.4631 16.3321 38.4704 19.5493 44.8496 25.4183C42.1101 28.2845 39.3706 31.5407 36.768 35.1479C32.3457 35.6159 28.1582 36.3373 24.3229 37.2927C23.8728 35.3429 23.5402 33.4516 23.3053 31.6382C22.3856 24.1899 23.5206 18.3989 26.1623 16.8586C26.7493 16.5076 27.5124 16.3516 28.4126 16.3516V12.0035C26.7689 12.0035 25.2817 12.3545 23.9902 13.0954C18.4916 16.2541 17.2589 26.1007 20.0962 38.4626C7.92499 42.2063 0 48.1922 0 54.5097C0 60.8466 7.96412 66.8521 20.1745 70.5762C17.3567 82.9771 18.6091 92.8432 24.1272 96.0019C25.3991 96.7429 26.8863 97.0938 28.53 97.0938C33.9111 97.0938 40.9556 93.2722 48.0783 86.6428C55.201 93.2332 62.2454 97.0159 67.6266 97.0159C69.2703 97.0159 70.7574 96.6649 72.0489 95.924C77.5475 92.7652 78.7803 82.9186 75.9429 70.5567C88.075 66.8326 96 60.8271 96 54.5097ZM70.5226 41.5043C69.7986 44.0196 68.8985 46.6129 67.881 49.2062C67.0787 47.6463 66.2373 46.0864 65.3176 44.5266C64.4174 42.9667 63.4586 41.4458 62.4998 39.964C65.2784 40.3734 67.9592 40.8804 70.5226 41.5043ZM61.5605 62.27C60.0342 64.9022 58.4688 67.398 56.8447 69.7183C53.9291 69.9718 50.9743 70.1083 48 70.1083C45.0453 70.1083 42.0905 69.9718 39.1945 69.7378C37.5703 67.4175 35.9853 64.9412 34.459 62.3285C32.9719 59.7742 31.6217 57.1809 30.3889 54.5682C31.6021 51.9554 32.9719 49.3426 34.4395 46.7884C35.9658 44.1561 37.5312 41.6603 39.1553 39.34C42.0709 39.0866 45.0257 38.9501 48 38.9501C50.9548 38.9501 53.9095 39.0866 56.8055 39.3205C58.4297 41.6408 60.0147 44.1171 61.541 46.7299C63.0281 49.2841 64.3783 51.8774 65.6111 54.4902C64.3783 57.1029 63.0281 59.7157 61.5605 62.27ZM67.881 59.7352C68.9376 62.348 69.8378 64.9607 70.5813 67.4955C68.0179 68.1195 65.3176 68.6459 62.5194 69.0554C63.4782 67.554 64.437 66.0136 65.3371 64.4343C66.2373 62.8744 67.0787 61.2951 67.881 59.7352ZM48.0391 80.5398C46.2193 78.668 44.3995 76.5817 42.5993 74.3004C44.3604 74.3784 46.1606 74.4369 47.9804 74.4369C49.8198 74.4369 51.6396 74.3979 53.4203 74.3004C51.6592 76.5817 49.8394 78.668 48.0391 80.5398ZM33.4806 69.0554C30.702 68.6459 28.0212 68.139 25.4578 67.515C26.1818 64.9997 27.0819 62.4065 28.0995 59.8132C28.9018 61.3731 29.7432 62.9329 30.6629 64.4928C31.5826 66.0526 32.5218 67.5735 33.4806 69.0554ZM47.9413 28.4795C49.7611 30.3513 51.5809 32.4377 53.3812 34.719C51.6201 34.641 49.8198 34.5825 48 34.5825C46.1606 34.5825 44.3408 34.6215 42.5601 34.719C44.3212 32.4377 46.1411 30.3513 47.9413 28.4795ZM33.4611 39.964C32.5022 41.4653 31.5434 43.0057 30.6433 44.5851C29.7432 46.1449 28.9018 47.7048 28.0995 49.2646C27.0428 46.6519 26.1427 44.0391 25.3991 41.5043C27.9625 40.8999 30.6629 40.3734 33.4611 39.964ZM15.7521 64.3758C8.82512 61.4316 4.34407 57.5709 4.34407 54.5097C4.34407 51.4485 8.82512 47.5683 15.7521 44.6436C17.435 43.9221 19.2744 43.2787 21.1724 42.6742C22.2878 46.4959 23.7554 50.4735 25.5752 54.5487C23.775 58.6043 22.327 62.5625 21.2311 66.3646C19.2939 65.7602 17.4545 65.0972 15.7521 64.3758ZM26.2797 92.2388C23.6184 90.7179 22.4639 84.9269 23.364 77.4786C23.5793 75.6458 23.9315 73.7154 24.362 71.7461C28.1973 72.682 32.3848 73.4035 36.7876 73.8714C39.4293 77.4786 42.1688 80.7543 44.9278 83.6206C38.5487 89.5285 32.5609 92.7652 28.4908 92.7652C27.6103 92.7457 26.8667 92.5703 26.2797 92.2388ZM72.6947 77.3811C73.6144 84.8294 72.4794 90.6204 69.8377 92.1608C69.2507 92.5118 68.4876 92.6677 67.5874 92.6677C63.5369 92.6677 57.5296 89.4505 51.1504 83.5816C53.8899 80.7153 56.6294 77.4591 59.232 73.8519C63.6543 73.384 67.8418 72.6625 71.6771 71.7071C72.1272 73.6765 72.4794 75.5678 72.6947 77.3811ZM80.2283 64.3758C78.5455 65.0972 76.7061 65.7407 74.808 66.3451C73.6926 62.5235 72.225 58.5458 70.4052 54.4707C72.2055 50.415 73.6535 46.4569 74.7493 42.6547C76.6865 43.2592 78.5259 43.9221 80.2479 44.6436C87.1749 47.5878 91.6559 51.4485 91.6559 54.5097C91.6364 57.5709 87.1553 61.4511 80.2283 64.3758Z" fill="#A7D5EA"/>
<path d="M47.9804 63.4203C52.9192 63.4203 56.9229 59.4308 56.9229 54.5096C56.9229 49.5883 52.9192 45.5989 47.9804 45.5989C43.0416 45.5989 39.0379 49.5883 39.0379 54.5096C39.0379 59.4308 43.0416 63.4203 47.9804 63.4203Z" fill="#A7D5EA"/>
</svg>
