<svg width="96" height="91" viewBox="0 0 96 91" fill="none" xmlns="http://www.w3.org/2000/svg">
<g clip-path="url(#clip0_18_462)">
<path d="M66.5179 63.3007C70.0605 62.936 72.7481 59.899 72.6259 56.254C72.504 52.6095 69.4496 49.6936 65.7847 49.6936H65.5406C61.7531 49.8152 58.8214 52.9738 58.9436 56.7399C59.0659 58.5624 59.7986 60.1417 60.8981 61.2351C56.7446 69.3753 50.3921 75.3282 40.8634 80.3093C34.3886 83.7111 27.6697 84.9261 20.9509 84.0758C15.4534 83.3468 11.1776 80.9172 8.48962 76.9075C4.58062 70.9546 4.21425 64.5154 7.51275 58.0765C9.834 53.4597 13.4985 50.0579 15.8197 48.357C15.3311 46.7777 14.598 44.105 14.2316 42.1613C-3.48225 54.9178 -1.64963 72.1696 3.72562 80.3093C7.75687 86.3842 15.942 90.1504 24.9821 90.1504C27.4252 90.1504 29.8684 89.9072 32.3119 89.3001C47.949 86.2626 59.799 77.0291 66.5179 63.3007ZM88.0189 48.2358C78.7342 37.423 65.052 31.47 49.4149 31.47H47.4604C46.3609 29.2832 44.0396 27.8251 41.4742 27.8251H41.2297C37.443 27.9467 34.5112 31.1053 34.6331 34.8718C34.7554 38.5164 37.8094 41.4323 41.4742 41.4323H41.7184C44.406 41.3107 46.7272 39.6098 47.7045 37.3014H49.9035C59.1881 37.3014 67.9837 39.9741 75.9247 45.1984C82.0327 49.2077 86.4307 54.4319 88.8739 60.7492C90.9506 65.8519 90.8284 70.833 88.6294 75.0854C85.209 81.5243 79.4674 85.0477 71.8931 85.0477C67.0065 85.0477 62.3644 83.5895 59.9209 82.4961C58.5772 83.7111 56.1337 85.6548 54.4234 86.8701C59.6767 89.2997 65.052 90.6363 70.1827 90.6363C81.9105 90.6363 90.5842 84.197 93.8827 77.7582C97.4254 70.7114 97.1809 58.5624 88.0189 48.2358ZM25.9594 65.3656C26.0816 69.0106 29.1356 71.926 32.8005 71.926H33.045C36.8321 71.8048 39.7639 68.6458 39.6416 64.8797C39.5197 61.2348 36.4654 58.3193 32.8005 58.3193H32.5564C32.3119 58.3193 31.9451 58.3193 31.7014 58.4405C26.6925 50.1791 24.6157 41.1891 25.3489 31.4697C25.8371 24.1802 28.2806 17.8625 32.5564 12.6382C36.099 8.14305 42.9401 5.95623 47.5826 5.83504C60.5317 5.59189 66.0289 21.6286 66.3956 28.0679C67.9837 28.4322 70.6714 29.2828 72.504 29.8903C71.0377 10.209 58.8214 0.00366211 47.094 0.00366211C36.099 0.00366211 25.9594 7.90065 21.9277 19.5638C16.3084 35.1146 19.9732 50.0579 26.8144 61.8426C26.2039 62.6929 25.8371 64.0291 25.9594 65.3656Z" fill="#BF3B53"/>
</g>
<defs>
<clipPath id="clip0_18_462">
<rect width="96" height="91" fill="white"/>
</clipPath>
</defs>
</svg>
