<svg width="96" height="73" viewBox="0 0 96 73" fill="none" xmlns="http://www.w3.org/2000/svg">
<g clip-path="url(#clip0_164_123)">
<path d="M82.6111 41.9582C79.2639 41.9759 76.3548 42.7938 73.9188 44.0027C73.0251 42.2071 72.1313 40.607 71.9736 39.4336C71.7984 38.0646 71.5881 37.229 71.7984 35.5933C72.0087 33.9577 72.955 31.6286 72.9375 31.4509C72.9199 31.2731 72.7272 30.4375 70.7995 30.4197C68.8718 30.4019 67.2069 30.793 67.0141 31.3086C66.8214 31.8242 66.4534 32.9976 66.208 34.2066C65.875 35.9845 62.3526 42.3315 60.3372 45.6562C59.6888 44.3583 59.1281 43.2205 59.0054 42.3137C58.8301 40.9448 58.6198 40.1092 58.8301 38.4735C59.0404 36.8378 59.9868 34.5088 59.9692 34.331C59.9517 34.1532 59.7589 33.3176 57.8312 33.2999C55.9035 33.2821 54.2387 33.6732 54.0459 34.1888C53.8531 34.7044 53.6428 35.9134 53.2398 37.0868C52.8367 38.2602 48.1576 48.8564 46.9309 51.5943C46.3 52.9988 45.7567 54.1189 45.3712 54.8834C45.3712 54.8834 45.3537 54.9367 45.3011 55.0256C44.9681 55.6834 44.7754 56.039 44.7754 56.039C44.7754 56.039 44.7754 56.039 44.7754 56.0568C44.5125 56.5368 44.2321 56.9813 44.0919 56.9813C43.9868 56.9813 43.794 55.7012 44.127 53.9589C44.8279 50.2787 46.4928 44.5539 46.4753 44.3583C46.4753 44.2516 46.7907 43.256 45.3887 42.7404C44.0218 42.2248 43.5311 43.0782 43.4084 43.0782C43.2858 43.0782 43.1981 43.3805 43.1981 43.3805C43.1981 43.3805 44.7228 36.9445 40.2891 36.9445C37.5202 36.9445 33.6998 40.0203 31.8071 42.7938C30.6155 43.4516 28.0744 44.8561 25.3581 46.3673C24.3241 46.954 23.2551 47.5407 22.2562 48.0919C22.1861 48.0208 22.116 47.9319 22.0459 47.8607C16.6834 42.0471 6.76441 37.9401 7.185 30.1352C7.34272 27.2906 8.30658 19.8235 26.2343 10.7563C40.99 3.37803 52.7316 5.4226 54.7644 9.95621C57.6735 16.4277 48.4731 28.4462 33.2266 30.1886C27.4084 30.8464 24.3592 28.5707 23.5881 27.7173C22.7819 26.8284 22.6593 26.775 22.3613 26.9528C21.8707 27.2195 22.1861 28.0195 22.3613 28.4818C22.817 29.6907 24.6921 31.8242 27.8641 32.8732C30.668 33.7977 37.4851 34.3133 45.7392 31.0775C54.9747 27.4506 62.1949 17.37 60.0744 8.92504C57.9539 0.355628 43.9342 -2.47121 30.668 2.3113C22.7819 5.15592 14.2299 9.63619 8.07876 15.4677C0.770979 22.4014 -0.385647 28.4285 0.0875184 30.953C1.78741 39.9136 13.967 45.7451 18.8389 50.0653C18.5935 50.2076 18.3657 50.332 18.173 50.4387C15.737 51.6654 6.44897 56.5902 4.13571 61.7994C1.50701 67.7019 4.5563 71.9333 6.57164 72.5022C12.8279 74.2623 19.2595 71.0977 22.7118 65.8707C26.1642 60.6437 25.7436 53.8522 24.1489 50.7409C24.1313 50.7054 24.1138 50.6698 24.0788 50.6342C24.7096 50.2609 25.3581 49.8698 25.9889 49.4964C27.2332 48.7497 28.4599 48.0563 29.5114 47.4874C28.9156 49.1408 28.4774 51.1143 28.2671 53.9589C28.0043 57.3013 29.3537 61.6394 31.1237 63.3461C31.9123 64.0928 32.8411 64.1106 33.4369 64.1106C35.5048 64.1106 36.4336 62.3683 37.4676 60.3059C38.7294 57.7813 39.8685 54.8478 39.8685 54.8478C39.8685 54.8478 38.449 62.7772 42.3044 62.7772C43.7064 62.7772 45.1259 60.9282 45.7567 59.9859C45.7567 60.0037 45.7567 60.0037 45.7567 60.0037C45.7567 60.0037 45.7918 59.9504 45.8619 59.8259C46.0021 59.5948 46.0897 59.4526 46.0897 59.4526C46.0897 59.4526 46.0897 59.4348 46.0897 59.417C46.6505 58.4214 47.9123 56.1635 49.7874 52.4121C52.2058 47.5763 54.5366 41.5315 54.5366 41.5315C54.5366 41.5315 54.7469 43.0071 55.4654 45.4606C55.886 46.9007 56.7622 48.483 57.4632 50.012C56.9024 50.812 56.5519 51.2565 56.5519 51.2565C56.5519 51.2565 56.5519 51.2565 56.5695 51.2743C56.1138 51.8788 55.6231 52.5366 55.0799 53.1766C53.1697 55.4879 50.8915 58.1369 50.576 58.9014C50.208 59.8081 50.2956 60.466 50.9966 60.9993C51.5048 61.3905 52.4161 61.4438 53.3449 61.3905C55.0623 61.266 56.2715 60.8393 56.8674 60.5726C57.7962 60.2348 58.8827 59.7192 59.8991 58.9548C61.7743 57.5502 62.9134 55.5412 62.8082 52.8922C62.7557 51.4343 62.2825 49.9764 61.7042 48.6075C61.8794 48.3585 62.0371 48.1096 62.2124 47.8607C65.1741 43.4694 67.4698 38.6513 67.4698 38.6513C67.4698 38.6513 67.6801 40.1269 68.3986 42.5804C68.7491 43.8249 69.4676 45.1761 70.0985 46.4918C67.3121 48.7852 65.5946 51.4521 64.9813 53.1944C63.8772 56.4302 64.7359 57.888 66.3657 58.2258C67.1018 58.3858 68.1532 58.0302 68.9243 57.6924C69.9057 57.3724 71.0623 56.8213 72.1664 56.0035C74.0415 54.5989 75.8466 52.6433 75.7414 49.9942C75.6888 48.7852 75.3734 47.5941 74.9353 46.4384C77.3011 45.4428 80.3504 44.8917 84.2409 45.3539C92.5826 46.3495 94.2299 51.6299 93.9145 53.8522C93.599 56.0746 91.8466 57.2835 91.2683 57.6569C90.6899 58.0302 90.4972 58.1547 90.5497 58.4214C90.6198 58.8125 90.9002 58.7947 91.3909 58.7236C92.0744 58.5992 95.7721 56.928 95.9298 52.8388C96.1927 47.6118 91.2858 41.9048 82.6111 41.9582ZM18.2606 63.9684C15.4917 67.0263 11.6363 68.182 9.97142 67.2041C8.18391 66.1552 8.88489 61.6394 12.2847 58.4036C14.3526 56.4302 17.0163 54.5989 18.7863 53.4789C19.1894 53.23 19.7852 52.8744 20.5037 52.4299C20.6264 52.3588 20.6965 52.3232 20.6965 52.3232C20.8367 52.2343 20.9769 52.1454 21.1171 52.0565C22.3613 56.6791 21.1697 60.7504 18.2606 63.9684ZM38.4139 50.0653C37.4501 52.4477 35.4347 58.5458 34.208 58.208C33.1565 57.9236 32.5081 53.3011 33.9977 48.7319C34.7513 46.4384 36.346 43.7005 37.2748 42.6338C38.7819 40.927 40.4468 40.3581 40.8498 41.0514C41.3581 41.9582 39.0098 48.5719 38.4139 50.0653ZM55.0448 58.1369C54.6417 58.3503 54.2562 58.4925 54.081 58.3858C53.9583 58.3147 54.2562 58.0302 54.2562 58.0302C54.2562 58.0302 56.3416 55.7546 57.1653 54.7234C57.6385 54.1189 58.1992 53.4077 58.7951 52.6077C58.7951 52.6788 58.7951 52.7677 58.7951 52.8388C58.7951 55.559 56.2014 57.3902 55.0448 58.1369ZM67.8728 55.1678C67.5749 54.9545 67.6275 54.2434 68.6264 52.021C69.012 51.1498 69.9232 49.692 71.4829 48.2874C71.6582 48.8564 71.7808 49.4075 71.7633 49.9231C71.7458 53.3544 69.3274 54.6345 67.8728 55.1678Z" fill="#BF3B53"/>
</g>
<defs>
<clipPath id="clip0_164_123">
<rect width="96" height="73" fill="white"/>
</clipPath>
</defs>
</svg>
