<svg width="94" height="96" viewBox="0 0 94 96" fill="none" xmlns="http://www.w3.org/2000/svg">
<g clip-path="url(#clip0_18_594)">
<path d="M54.9405 93.6927C52.4746 96.7519 47.4745 95.0758 47.4151 91.1695L46.5463 34.0356H85.5431C92.6064 34.0356 96.5458 42.0725 92.1537 47.5221L54.9405 93.6927Z" fill="url(#paint0_linear_18_594)"/>
<path d="M54.9405 93.6927C52.4746 96.7519 47.4745 95.0758 47.4151 91.1695L46.5463 34.0356H85.5431C92.6064 34.0356 96.5458 42.0725 92.1537 47.5221L54.9405 93.6927Z" fill="url(#paint1_linear_18_594)" fill-opacity="0.2"/>
<path d="M39.0807 1.75949C41.5467 -1.3001 46.5468 0.376334 46.6062 4.28265L46.987 61.4164H8.4782C1.41461 61.4164 -2.52487 53.3795 1.86747 47.9299L39.0807 1.75949Z" fill="#BF3B53"/>
</g>
<defs>
<linearGradient id="paint0_linear_18_594" x1="46.5463" y1="46.7037" x2="81.0482" y2="61.3922" gradientUnits="userSpaceOnUse">
<stop stop-color="#1E1E1E"/>
<stop offset="1" stop-color="#BF3B53"/>
</linearGradient>
<linearGradient id="paint1_linear_18_594" x1="31.1803" y1="25.9778" x2="46.6202" y2="55.4815" gradientUnits="userSpaceOnUse">
<stop stop-color="#030B01" stop-opacity="0.2"/>
<stop offset="1" stop-color="#030B01" stop-opacity="0"/>
</linearGradient>
<clipPath id="clip0_18_594">
<rect width="94" height="96" fill="white"/>
</clipPath>
</defs>
</svg>
