<svg width="96" height="96" viewBox="0 0 96 96" fill="none" xmlns="http://www.w3.org/2000/svg">
<g clip-path="url(#clip0_18_467)">
<path d="M0 48V0H96V96H0" fill="#A7D5EA"/>
<path d="M21.048 48.1679V52.0799H33.528V87.5999H42.384V52.0799H54.864V48.2399C54.864 46.0799 54.864 44.3279 54.768 44.2799C54.768 44.2079 47.16 44.1839 37.92 44.1839L21.12 44.2559V48.1919L21.048 48.1679ZM77.136 44.1599C79.584 44.7359 81.456 45.8399 83.136 47.5919C84.024 48.5519 85.344 50.2319 85.44 50.6639C85.44 50.8079 81.288 53.6159 78.768 55.1759C78.672 55.2479 78.288 54.8399 77.904 54.2159C76.656 52.4399 75.384 51.6719 73.392 51.5279C70.512 51.3359 68.592 52.8479 68.592 55.3679C68.592 56.1359 68.736 56.5679 69.024 57.1919C69.672 58.5119 70.872 59.3039 74.592 60.9359C81.456 63.8879 84.432 65.8319 86.232 68.6159C88.272 71.7359 88.728 76.6319 87.36 80.3039C85.824 84.3119 82.08 87.0239 76.728 87.9119C75.048 88.1999 71.208 88.1519 69.408 87.8399C65.568 87.1199 61.896 85.1999 59.64 82.7279C58.752 81.7679 57.048 79.1999 57.144 79.0319L58.056 78.4559L61.656 76.3679L64.368 74.7839L64.992 75.6239C65.784 76.8719 67.56 78.5519 68.592 79.1279C71.712 80.7359 75.888 80.5199 77.952 78.6479C78.84 77.8319 79.224 76.9679 79.224 75.7679C79.224 74.6639 79.056 74.1599 78.504 73.3199C77.736 72.2639 76.2 71.3999 71.88 69.4799C66.912 67.3679 64.8 66.0239 62.832 63.9599C61.704 62.7119 60.672 60.7679 60.192 59.1599C59.832 57.7679 59.712 54.3599 60.048 52.9919C61.08 48.1919 64.704 44.8319 69.888 43.8719C71.568 43.5359 75.528 43.6799 77.184 44.1119L77.136 44.1599Z" fill="white"/>
</g>
<defs>
<clipPath id="clip0_18_467">
<rect width="96" height="96" fill="white"/>
</clipPath>
</defs>
</svg>
