<svg xmlns="http://www.w3.org/2000/svg" width="32" height="24" viewBox="0 0 32 24" fill="none">
  <path d="M2.18182 24.0029H7.27273V11.6393L0 6.18475V21.8211C0 23.0266 0.976364 24.0029 2.18182 24.0029Z" fill="#FF9E9F"/>
  <path d="M24.7273 24.0029H29.8182C31.0236 24.0029 32 23.0266 32 21.8211V6.18475L24.7273 11.6393V24.0029Z" fill="#FF9E9F"/>
  <path d="M24.7273 2.18477V11.6393L32 6.18477V3.27568C32 0.579313 28.9218 -0.960687 26.7636 0.657495L24.7273 2.18477Z" fill="#FF9E9F"/>
  <path fill-rule="evenodd" clip-rule="evenodd" d="M7.27274 11.6393V2.18475L16 8.73021L24.7273 2.18475V11.6393L16 18.1848L7.27274 11.6393Z" fill="#FF9E9F"/>
  <path d="M0 3.27568V6.18477L7.27273 11.6393V2.18477L5.23636 0.657495C3.07818 -0.960687 0 0.579313 0 3.27568Z" fill="#FF9E9F"/>
</svg>